<svg xmlns="http://www.w3.org/2000/svg" viewBox="0 0 184.8 64.86"><style>.lt{fill:#000}</style><path class="lt" d="M48.86 55.88C37 67.74 17.83 67.86 5.83 56.22L49.2 12.84c11.64 12.01 11.53 31.17-.34 43.04zm3.18-47.23L8.65 52.03C-3 40.03-2.89 20.85 8.98 8.98 20.85-2.88 40.04-2.99 52.04 8.65z"/><path class="lt" d="M58.32.99h30.94v62.88H58.32zm62.52 0v30.77L90.36.99zm.01 32.01l-.01 30.87H90.36zm-.55-.56L90.1 62.92V1.94zM121.56.99h31.08v62.88h-31.08zm62.69 0v31.44L152.81.99z"/><circle cx="169" cy="48.8" r="15.79" fill="#00f"/></svg>